# xmcd
#
# Track frame offsets: 
#        150
#        16517
#        32512
#        45110
#        59987
#        74612
#        87620
#        103095
#        115770
#        130865
#        147800
#        160782
#
# Disc length: 2282 seconds
#
# Revision: 1
# Processed by: cddbd v1.5.2PL0 Copyright (c) Steve Scherf et al.
# Submitted via: ExactAudioCopy v0.99pb5
#
DISCID=9d08e80c
DTITLE=Various Artist - Schlagergold
DYEAR=1900
DGENRE=Schlager
TTITLE0=Roy Black - Wer Gefühle zeigt
TTITLE1=Die Orig. Romantics - Auf rote Rosen fallen Tränen
TTITLE2=Peter Kraus - So, wie damals Baby
TTITLE3=B. Lolita - Wenn die weißen Rosen wieder blüh`n
TTITLE4=Johnny Guitarro - Südseemelodie
TTITLE5=Christian Blum - Du bist wie die Sterne schön
TTITLE6=Die Muntermacher - Mach` es wie die Sonnenuhr
TTITLE7=Peter Orloff - Königin der Nacht
TTITLE8=H. Kumpusch - Sehnsuchtsmelodie
TTITLE9=Die Paldauer and Egon Egemann - Helen
TTITLE10=Johnny Guitarro - Maria Elisabeth
TTITLE11=Gus Backus - Ich steh` an der Bar
EXTD=Pepi
EXTT0=
EXTT1=
EXTT2=
EXTT3=
EXTT4=
EXTT5=
EXTT6=
EXTT7=
EXTT8=
EXTT9=
EXTT10=
EXTT11=
PLAYORDER=
